Coordinates																
version=1																
nRows=51																
nColumns=17																
inDegrees=yes																
																
"Units are S.I. units (second, meters, Newtons, ...)"																
"If the header above contains a line with 'inDegrees', this indicates whether rotational values are in degrees (yes) or radians (no)."																
																
endheader																
time	/jointset/hip_l/hip_flexion_l/value	/jointset/hip_l/hip_adduction_l/value	/jointset/hip_l/hip_rotation_l/value	/jointset/hip_r/hip_flexion_r/value	/jointset/hip_r/hip_adduction_r/value	/jointset/hip_r/hip_rotation_r/value	/jointset/walker_knee_l/knee_angle_l/value	/jointset/walker_knee_l/knee_adduction_l/value	/jointset/walker_knee_r/knee_angle_r/value	/jointset/walker_knee_r/knee_adduction_r/value	/jointset/ankle_l/ankle_angle_l/value	/jointset/ankle_r/ankle_angle_r/value	/jointset/subtalar_l/subtalar_angle_l/value	/jointset/subtalar_r/subtalar_angle_r/value	/jointset/mtp_l/mtp_angle_l/value	/jointset/mtp_r/mtp_angle_r/value
12.51	-20.23625736	-38.00389855	-31.36956569	-25.79978551	4.11435476	-14.94024494	107.0293014	-20.5857	36.67506215	-11.0263	-10.71326313	-47.80632708	1.2058868	-34.66261809	-20.03287805	-9.13691181
12.52	-26.02042419	-33.99888497	19.314485	75.99150191	-17.10847577	-10.94762165	13.53268676	13.0175	46.28128929	26.8442	42.43090593	9.74817543	-29.89505946	-13.54366607	3.59999309	-37.37502975
12.53	77.09602254	17.95442919	21.33913929	-20.83492309	1.47707908	26.94153399	16.41608381	-3.78982	14.94555703	-28.4225	-44.51866229	-30.4035649	29.96889353	0.99751373	-32.86786707	-28.90804517
12.54	107.3356153	-11.68291846	12.99025458	42.54219215	-29.12234866	24.75980014	6.28244499	12.3149	29.24502962	-9.0961	14.63634955	4.44838026	-18.31360245	11.78823653	-6.76460873	-28.17740369
12.55	32.13734335	4.59413185	-38.32053228	103.3972915	-10.90754816	-33.89021378	41.81427187	-22.1523	41.68481997	4.28416	34.92222691	37.86856852	-0.93390686	-18.17329033	-41.11427193	-35.60500974
12.56	24.35450223	0.0319291	21.64928466	-21.15212414	-49.32017876	-6.11333552	94.53316041	9.40528	11.5489479	11.4286	-42.01788908	26.67982194	14.17177775	-2.18188481	-15.99926757	-42.43431592
12.57	107.7711558	19.62964274	-22.67908122	93.32788196	-23.71089688	-30.09804305	48.87996699	-27.674	102.2886769	1.22227	21.91497873	9.91121013	13.57543566	-33.81464529	-34.24913117	2.60083165
12.58	20.67272043	-35.38141242	29.62171538	103.2861096	-19.45602408	-3.52475302	132.8222421	-18.1779	133.2118006	13.5606	-41.48970302	0.36526555	10.62739385	27.02525567	-43.96739668	-8.00646582
12.59	36.90380596	-35.75911483	30.18427451	75.42178484	7.55078733	-30.05496949	128.119472	19.1075	33.07030919	-2.65617	21.9211281	-21.20016876	-11.529495	-30.217864	-21.30424788	-7.15916231
12.6	59.82697288	-5.98385267	-21.52403145	105.7570677	-38.7411156	26.11862236	27.54235338	10.9695	32.58456833	5.59811	-15.58793446	47.01050016	-7.53016992	21.5023105	-32.89324943	-24.41468484
12.61	48.55430244	12.1767936	32.61906155	48.07406389	18.95904998	28.05204416	28.36372952	1.21214	33.28451558	-10.5436	-17.18460882	11.8997791	11.59831203	-5.96301733	-18.86829528	3.68588336
12.62	15.65436524	-9.49871782	12.78578794	34.45890731	-12.98048158	34.53890558	109.0991435	-26.0216	112.8942669	24.5246	25.22884779	33.57874215	-9.02747637	4.09160473	-26.96093355	-19.46900685
12.63	99.76454949	-21.82815768	-18.07448992	23.67462961	3.59218667	9.78549659	135.0086444	-29.6272	109.5341481	9.00265	-38.73311085	-19.22137301	23.59492225	-21.4171336	-27.71240842	-41.60425478
12.64	44.19608903	-15.59520868	-10.03681675	-4.93741072	-38.68369056	-20.89916956	54.69651927	17.3189	112.3614749	3.81879	-26.40683855	45.55305746	22.07566934	-26.45874059	-38.00536709	-32.49631665
12.65	116.9910617	10.83267043	-34.21516716	34.47405397	-34.84733727	-0.65882948	37.89944616	-16.9825	61.96034061	-11.1686	-46.2230596	36.38233125	4.01704832	-10.19912099	-30.40689338	0.12671673
12.66	88.31530477	-8.40701067	2.52300129	29.76817131	12.23670481	33.31531203	43.85369337	14.4814	49.76442419	1.09955	2.54671586	-12.98223428	19.18833326	6.60049958	-12.23816114	-36.0609727
12.67	34.73880968	-20.88763182	5.22298495	40.91305779	2.27811341	-15.50420221	16.97189277	-18.8628	108.9939803	15.8314	47.5645723	-47.56824482	30.4544375	21.12008583	-18.89128868	-36.21286324
12.68	17.04797755	-7.15678121	0.681342	62.38653733	-3.87234747	1.40621736	93.02043041	1.9909	43.61237699	10.5366	-25.12834979	-0.04932734	-24.61561727	34.06107612	-21.92087682	-11.98291446
12.69	24.05479133	-37.74443748	23.25704442	36.91521572	-37.35124141	-12.43397901	134.5567831	29.2994	101.0914813	24.1582	-22.0520931	43.72541518	-16.45521377	4.0779644	-26.27638478	-22.85179195
12.7	1.56899248	19.47936898	-36.44676863	-27.75174264	-9.20256726	32.8831564	123.8941396	-15.6564	125.1426416	28.3844	9.71612819	28.58091998	19.03548527	-22.90190466	-41.02501639	-35.0608399
12.71	39.78980674	15.12855449	21.15541683	116.0343442	-18.19186358	20.82029789	120.3280178	-7.11092	127.1555764	17.4262	-4.91178843	-24.19933876	-34.34520382	4.59961493	-7.08593606	3.07623897
12.72	82.49782109	14.39579608	18.87852889	96.6728804	-2.71410272	5.94026993	108.4102068	21.3701	120.9573157	-27.293	-27.931172	47.81210483	-6.65762177	-26.51878862	-43.59498894	-28.12897661
12.73	8.01018446	10.2571268	8.90969696	60.43067472	-5.53796768	29.4807176	1.42377485	28.6786	71.83137566	10.5387	33.92489748	38.37368508	-32.69001489	-5.00347615	-6.26612523	-16.22425983
12.74	-20.34209347	9.81139129	26.87283585	80.28520652	-41.09690215	25.4144905	116.3337117	-19.3921	32.92892454	-3.5845	48.18435006	19.98209101	31.60179615	4.28341021	4.95017876	-44.58036461
12.75	74.6662179	-15.47491248	-5.6502828	24.12927039	17.64013001	8.78463265	16.4558631	-16.6591	61.78442824	15.0566	23.83175145	-47.34720216	3.1317745	-6.97356873	-39.79645193	-13.71082655
12.76	31.65583901	-31.29830234	-14.70887935	107.8028747	-13.24128854	-30.49679987	118.3176171	-11.3944	127.9251668	-7.29304	0.63904849	15.35149915	17.04182227	-32.34681657	-42.15277374	-16.07974397
12.77	61.05888727	-4.54818695	-31.39473331	90.43815265	-27.06239066	-16.0398058	39.34658081	-16.1663	31.34565575	23.9892	-19.15785902	-16.4995413	32.65217335	-16.59056179	-27.42748713	-10.29326609
12.78	-6.26169973	-1.52998095	-3.12886075	38.60584361	-27.49881364	25.92519207	94.11690954	-0.500992	4.88294063	-18.31	14.86335917	44.2947746	-17.04029049	6.31899621	-40.4453556	-10.76194655
12.79	17.09600431	-8.67739496	-26.59709184	108.4386849	-2.08420554	-2.79319627	77.07507207	-12.2075	49.00876706	-26.6312	21.97603723	48.64922923	-10.72494091	-1.15142591	-21.12308861	-10.15177481
12.8	61.5802053	-29.10010124	-7.70229303	-12.29496462	-6.25810701	-32.32563518	40.00674321	-3.41295	116.6481035	-2.57874	13.16881015	1.80030696	-22.62762045	-14.16188194	2.42126801	0.79335966
12.81	-21.58186022	4.92700556	34.24169848	7.99164927	-1.22937257	17.62665917	99.64828916	-5.21124	55.87231365	-9.27936	19.61726053	-38.80032891	-5.37898638	33.11195384	-36.8280416	-38.44065522
12.82	-24.21937093	-25.55924804	-25.86284399	86.57385903	-49.10030517	-31.59584008	33.40003411	-17.8071	68.49315275	22.2638	-25.03410394	13.79942533	23.19397199	-28.94953312	-1.05112078	-43.44560087
12.83	115.609141	-33.5514201	1.15835914	68.1759559	10.26498767	14.49867614	78.67373704	0.00241255	99.87738428	27.531	-8.5284845	-40.74273316	-23.84468684	3.35500349	-0.70223538	-15.65947953
12.84	108.341236	9.53954235	-22.50089998	32.06714552	-4.6699952	17.2942644	57.38121054	-1.88227	52.65567567	-13.7183	24.59063992	5.97750355	22.40551404	10.54132693	-38.30753397	-39.2716497
12.85	-26.76845034	-15.30054039	-33.73470406	-20.63706019	17.15186498	21.11473513	36.5885612	11.145	114.0365304	6.12591	-15.42829101	38.95869507	-18.06998019	6.96019413	-31.36016984	-27.32993952
12.86	9.77905334	4.65865688	-28.35437757	114.8689835	8.99138071	-5.65398083	19.92666713	3.18517	33.64140424	-10.3915	-34.85214903	23.31570675	-22.44618135	-31.7803582	-37.02009829	-15.67290999
12.87	110.627593	-24.08337914	26.38960619	-25.15648854	-9.1994385	-32.58035118	15.19327619	-29.9825	45.67398841	8.41537	-43.99395225	-25.84589015	22.12482541	31.35077674	-17.40559846	-23.51050628
12.88	100.3875883	13.06544619	27.79380316	22.30319333	-41.74254654	-32.37048643	60.42841396	10.6983	83.95855909	-15.6573	-12.58919683	-45.1559825	-32.46167145	-17.91011904	-20.53137238	-8.80683145
12.89	56.57188771	-18.97375772	0.61058603	-9.79883812	1.28747935	-32.93524838	67.1712257	12.8968	25.44779457	-5.86022	-22.79533072	-24.23641929	17.27807945	-0.17761537	-24.55161316	-21.88544249
12.9	-29.40123942	10.94208449	-5.83911233	47.57624644	-33.14708738	9.95068979	122.2539673	8.0002	118.6188398	15.7181	43.3649257	19.37061539	34.11270773	-30.85788197	-3.1629106	-13.36643999
12.91	28.450462	-35.51092078	5.3713921	8.98604274	18.42430262	-17.94428427	107.1384065	-14.0054	31.1751481	-23.2065	-11.5446346	13.93231295	-0.63402073	21.41527121	-3.99719389	-29.87906901
12.92	-17.41859936	-31.02333299	-0.47087004	116.9790051	-1.70221098	-13.75299566	127.9632394	29.6548	4.92894362	23.5149	48.98254666	25.41199177	12.52197751	-26.66332486	-0.00167539	-13.95667021
12.93	36.2407914	-21.09893664	22.5771869	35.99776097	-35.37332514	0.3402694	115.7179995	23.2079	72.31732556	-27.0032	26.94556912	-39.94907511	25.57531689	9.33099402	-36.43512352	-32.6936379
12.94	-15.55923334	-48.89821621	-4.89138877	105.6663841	-6.12304066	-37.89266855	76.76027049	-3.34443	136.5472672	-6.15249	-15.23386602	40.5947399	21.46751788	0.50985521	-15.92917893	-24.83030285
12.95	73.57808689	-21.41518298	-8.40502276	117.9140492	11.52416732	20.71881125	5.84848205	20.2859	105.067295	-26.186	-12.24256776	36.50847594	7.0341092	15.75484475	0.59860913	-35.72631975
12.96	114.9782638	0.74838123	25.58662591	21.58703233	-3.69518761	-20.79596354	12.68007803	-27.9356	94.68559224	18.9941	49.81115873	31.08013649	33.62297813	-14.8593885	-6.42780869	3.59679112
12.97	-23.5299092	-38.79840625	9.61882532	-3.2711481	-48.52170852	-31.56383033	75.95361999	2.0712	32.49430825	17.9627	21.9202396	23.44776601	23.10889035	16.27325067	4.94705763	-10.55027659
12.98	75.00205993	-25.06279326	-25.43872922	-21.34441187	-6.72855521	6.65235497	66.45193585	-17.8649	82.84093624	1.02026	4.30276745	37.59453004	-0.4826824	-5.9536856	-17.34339066	4.60677772
12.99	103.6223999	-32.20957196	18.04721851	75.31569833	-17.26814695	-13.7538926	107.7202707	-16.6543	93.8193217	-11.336	44.28409527	20.91280544	-13.58085306	22.72246595	-26.79572805	-1.77488053
13	61.00982728	-14.02920794	5.6679841	90.16772734	9.3680504	-21.18763181	24.4739352	21.5768	11.25772157	-2.34101	39.30831311	25.70265768	-2.78987844	-34.27572708	3.94042489	-40.75441553
13.01	36.46345346	-11.85690401	-31.90788974	86.63890599	-6.4160703	-26.9895457	63.25363458	-17.9901	125.4589617	-10.2431	-2.25447794	22.82856597	-11.26981115	-8.01829936	-1.69696432	-42.36552456
